<?xml version="1.0" encoding="UTF-8" standalone="no"?>
<!-- Generator: Gravit.io -->

<svg
   xmlns:dc="http://purl.org/dc/elements/1.1/"
   xmlns:cc="http://creativecommons.org/ns#"
   xmlns:rdf="http://www.w3.org/1999/02/22-rdf-syntax-ns#"
   xmlns:svg="http://www.w3.org/2000/svg"
   xmlns="http://www.w3.org/2000/svg"
   xmlns:sodipodi="http://sodipodi.sourceforge.net/DTD/sodipodi-0.dtd"
   xmlns:inkscape="http://www.inkscape.org/namespaces/inkscape"
   style="isolation:isolate"
   viewBox="0 0 48 48"
   width="48pt"
   height="48pt"
   version="1.1"
   id="svg27"
   sodipodi:docname="bcompare.svg"
   inkscape:version="0.92.3 (2405546, 2018-03-11)">
  <metadata
     id="metadata33">
    <rdf:RDF>
      <cc:Work
         rdf:about="">
        <dc:format>image/svg+xml</dc:format>
        <dc:type
           rdf:resource="http://purl.org/dc/dcmitype/StillImage" />
      </cc:Work>
    </rdf:RDF>
  </metadata>
  <defs
     id="defs31" />
  <sodipodi:namedview
     pagecolor="#ffffff"
     bordercolor="#666666"
     borderopacity="1"
     objecttolerance="10"
     gridtolerance="10"
     guidetolerance="10"
     inkscape:pageopacity="0"
     inkscape:pageshadow="2"
     inkscape:window-width="1152"
     inkscape:window-height="802"
     id="namedview29"
     showgrid="false"
     inkscape:zoom="3.6875"
     inkscape:cx="-5.8305085"
     inkscape:cy="32"
     inkscape:window-x="-8"
     inkscape:window-y="-8"
     inkscape:window-maximized="1"
     inkscape:current-layer="svg27" />
  <linearGradient
     id="_lgradient_2"
     x1="0.07200000000000006"
     y1="1.0040000000000002"
     x2="1.1629734513274335"
     y2="0.0880707964601769"
     gradientTransform="matrix(29.099,0,0,11.002,7.062,1)"
     gradientUnits="userSpaceOnUse">
    <stop
       offset="0%"
       stop-opacity="1"
       style="stop-color:rgb(138,35,135)"
       id="stop2" />
    <stop
       offset="48.26086956521739%"
       stop-opacity="1"
       style="stop-color:rgb(233,64,87)"
       id="stop4" />
    <stop
       offset="98.26086956521739%"
       stop-opacity="1"
       style="stop-color:rgb(247,121,125)"
       id="stop6" />
  </linearGradient>
  <path
     d="M 11.73,4.545 11.85,4.47 C 15.5,2.2 19.71,1 24,1 c 3.89,0 7.72,0.99 11.13,2.87 v 0 c 0.966,0.535 1.315,1.754 0.78,2.72 v 0 c -0.535,0.966 -1.754,1.315 -2.72,0.78 v 0 C 30.38,5.81 15.830169,-0.89830508 24,5 24.228425,5.1649141 23.437032,5.0062376 23.15649,5.0186626 19.917006,5.1621371 16.769744,6.1306382 14.007,7.847 L 14.74,8.14 v 0 c 1.027,0.414 1.526,1.581 1.115,2.605 v 0 c -0.411,1.024 -1.574,1.523 -2.595,1.115 v 0 L 8.567,9.983 C 7.542,9.573 6.886,8.361 7.103,7.279 L 8.04,2.61 v 0 C 8.255,1.528 9.308,0.825 10.39,1.04 v 0 c 1.082,0.215 1.785,1.268 1.57,2.35 v 0 z"
     id="path9"
     inkscape:connector-curvature="0"
     style="fill:url(#_lgradient_2);fill-rule:evenodd"
     sodipodi:nodetypes="ccsccccccsscccccccccccccccc" />
  <linearGradient
     id="_lgradient_3"
     x1="0"
     y1="0.5"
     x2="1.0453089597994198"
     y2="0.5346835454733667"
     gradientTransform="matrix(26.334,0,0,11,12.576,36)"
     gradientUnits="userSpaceOnUse">
    <stop
       offset="0%"
       stop-opacity="1"
       style="stop-color:rgb(84,51,255)"
       id="stop11" />
    <stop
       offset="0.36502293"
       stop-opacity="1"
       style="stop-color:rgb(32,189,255)"
       id="stop13" />
    <stop
       offset="98.26086956521739%"
       stop-opacity="1"
       style="stop-color:rgb(165,254,203)"
       id="stop15" />
  </linearGradient>
  <path
     d="M 33.484,40.48 32.81,40.83 C 30.09,42.26 15.883559,47.271186 24,43 26.619441,41.621548 18.12,42.31 15.48,40.98 v 0 c -0.988,-0.497 -2.193,-0.098 -2.69,0.89 v 0 c -0.497,0.988 -0.098,2.193 0.89,2.69 v 0 C 16.88,46.17 20.42,47 24,47 c 3.48,0 6.908,-0.788 10.029,-2.301 -0.165,1.05 0.529,2.052 1.581,2.261 v 0 c 1.082,0.215 2.135,-0.488 2.35,-1.57 v 0 l 0.908,-4.539 C 39.084,39.769 38.458,38.49 37.47,37.997 L 33.89,36.21 v 0 c -0.982,-0.491 -2.181,-0.09 -2.675,0.895 v 0 c -0.494,0.985 -0.093,2.188 0.895,2.685 v 0 z"
     id="path18"
     style="fill:url(#_lgradient_3);fill-rule:evenodd"
     inkscape:connector-curvature="0"
     sodipodi:nodetypes="ccsccccccscccccccccccccc" />
  <linearGradient
     id="_lgradient_4"
     x1="0"
     y1="0.5"
     x2="1"
     y2="0.5"
     gradientTransform="matrix(46,0,0,32.77,1,8.34)"
     gradientUnits="userSpaceOnUse">
    <stop
       offset="0%"
       stop-opacity="1"
       style="stop-color:rgb(88,0,226)"
       id="stop20" />
    <stop
       offset="99.16666666666667%"
       stop-opacity="1"
       style="stop-color:rgb(240,91,105)"
       id="stop22" />
  </linearGradient>
  <path
     d="m 7.29,33.05 v 0 c 0.53,0.971 0.171,2.188 -0.8,2.715 v 0 C 5.519,36.292 4.304,35.931 3.78,34.96 v 0 C 1.95,31.6 1,27.83 1,24 1,21.08 1.55,18.19 2.63,15.49 v 0 c 0.408,-1.027 1.573,-1.528 2.6,-1.12 v 0 c 1.027,0.408 1.528,1.573 1.12,2.6 v 0 C 5.45,19.2 9.6779661,22.200169 9.6779661,24.610169 9.6779661,27.770169 5.79,30.27 7.29,33.05 Z M 41.81,17.36 v 0 c -0.386,-1.032 0.14,-2.184 1.175,-2.57 v 0 c 1.035,-0.386 2.189,0.142 2.575,1.18 v 0 C 46.51,18.54 47,21.26 47,24 c 0,3.62 -0.85,7.2 -2.5,10.43 v 0 c -0.497,0.982 -1.7,1.372 -2.685,0.87 v 0 C 40.83,34.798 40.438,33.592 40.94,32.61 v 0 C 42.3,29.94 38.932203,28.210339 38.932203,25.220339 38.932203,22.950339 42.6,19.49 41.81,17.36 Z M 7.29,39.11 c 0,-1.104 0.896,-2 2,-2 1.104,0 2,0.896 2,2 0,1.104 -0.896,2 -2,2 -1.104,0 -2,-0.896 -2,-2 z M 37.57,10.34 c 0,-1.104 0.896,-2 2,-2 1.104,0 2,0.896 2,2 0,1.104 -0.896,2 -2,2 -1.104,0 -2,-0.896 -2,-2 z M 19.661017,23.79661 C 19.661017,21.67661 16.84,19.84 18.34,18.34 19.84,16.84 21.88,16 24,16 c 2.12,0 4.16,0.84 5.66,2.34 1.5,1.5 -1.117627,3.54 -1.117627,5.66 0,2.12 2.617627,4.16 1.117627,5.66 -1.5,1.5 -3.54,2.34 -5.66,2.34 -2.12,0 -4.16,-0.84 -5.66,-2.34 -1.5,-1.5 1.321017,-3.74339 1.321017,-5.86339 z M 12,24 c 0,-3.18 1.27,-6.24 3.51,-8.49 C 17.76,13.27 20.82,12 24,12 c 3.18,0 6.24,1.27 8.49,3.51 2.24,2.25 3.51,5.31 3.51,8.49 0,3.18 -1.27,6.24 -3.51,8.49 C 30.24,34.73 27.18,36 24,36 20.82,36 17.76,34.73 15.51,32.49 13.27,30.24 12,27.18 12,24 Z m 9.5,0 c 0,-1.38 1.12,-2.5 2.5,-2.5 1.38,0 2.5,1.12 2.5,2.5 0,1.38 -1.12,2.5 -2.5,2.5 -1.38,0 -2.5,-1.12 -2.5,-2.5 z"
     id="path25"
     inkscape:connector-curvature="0"
     style="fill:url(#_lgradient_4);fill-rule:evenodd"
     sodipodi:nodetypes="ccccccsccccccscccccccccsccccccccccccssccssssssssscssssscscscscs" />
</svg>
