<?xml version="1.0" encoding="UTF-8" standalone="no"?>
<!-- Generator: Gravit.io -->

<svg
   xmlns:dc="http://purl.org/dc/elements/1.1/"
   xmlns:cc="http://creativecommons.org/ns#"
   xmlns:rdf="http://www.w3.org/1999/02/22-rdf-syntax-ns#"
   xmlns:svg="http://www.w3.org/2000/svg"
   xmlns="http://www.w3.org/2000/svg"
   xmlns:sodipodi="http://sodipodi.sourceforge.net/DTD/sodipodi-0.dtd"
   xmlns:inkscape="http://www.inkscape.org/namespaces/inkscape"
   style="isolation:isolate"
   viewBox="0 0 48 48"
   width="48pt"
   height="48pt"
   version="1.1"
   id="svg11"
   sodipodi:docname="cliq.svg"
   inkscape:version="0.92.3 (2405546, 2018-03-11)">
  <metadata
     id="metadata17">
    <rdf:RDF>
      <cc:Work
         rdf:about="">
        <dc:format>image/svg+xml</dc:format>
        <dc:type
           rdf:resource="http://purl.org/dc/dcmitype/StillImage" />
      </cc:Work>
    </rdf:RDF>
  </metadata>
  <defs
     id="defs15" />
  <sodipodi:namedview
     pagecolor="#ffffff"
     bordercolor="#666666"
     borderopacity="1"
     objecttolerance="10"
     gridtolerance="10"
     guidetolerance="10"
     inkscape:pageopacity="0"
     inkscape:pageshadow="2"
     inkscape:window-width="1152"
     inkscape:window-height="802"
     id="namedview13"
     showgrid="false"
     inkscape:zoom="3.6875"
     inkscape:cx="-5.8305085"
     inkscape:cy="32"
     inkscape:window-x="-8"
     inkscape:window-y="-8"
     inkscape:window-maximized="1"
     inkscape:current-layer="svg11" />
  <linearGradient
     id="_lgradient_5"
     x1="-0.014458464773922156"
     y1="0.009839246119734024"
     x2="1.0164565923220248"
     y2="1.0722930524759795"
     gradientTransform="matrix(47,0,0,42.614,0.5,2.693)"
     gradientUnits="userSpaceOnUse">
    <stop
       offset="0%"
       stop-opacity="1"
       style="stop-color:#7fff2a;stop-opacity:1"
       id="stop2" />
    <stop
       offset="51.56237565086822%"
       stop-opacity="1"
       style="stop-color:rgb(255,78,80)"
       id="stop4" />
    <stop
       offset="99.1304347826087%"
       stop-opacity="1"
       style="stop-color:#0088aa;stop-opacity:1"
       id="stop6" />
  </linearGradient>
  <path
     d=" M 10.944 20.449 C 10.944 18.719 12.348 17.315 14.078 17.315 C 15.807 17.315 17.211 18.719 17.211 20.449 C 17.211 22.178 15.807 23.582 14.078 23.582 C 12.348 23.582 10.944 22.178 10.944 20.449 L 10.944 20.449 L 10.944 20.449 L 10.944 20.449 Z  M 21.389 20.449 C 21.389 18.719 22.793 17.315 24.522 17.315 C 26.252 17.315 27.656 18.719 27.656 20.449 C 27.656 22.178 26.252 23.582 24.522 23.582 C 22.793 23.582 21.389 22.178 21.389 20.449 L 21.389 20.449 L 21.389 20.449 L 21.389 20.449 Z  M 31.833 20.449 C 31.833 18.719 33.237 17.315 34.967 17.315 C 36.696 17.315 38.1 18.719 38.1 20.449 C 38.1 22.178 36.696 23.582 34.967 23.582 C 33.237 23.582 31.833 22.178 31.833 20.449 L 31.833 20.449 L 31.833 20.449 Z  M 20.344 6.871 L 20.344 6.871 C 19.192 6.871 18.256 5.935 18.256 4.782 L 18.256 4.782 C 18.256 3.629 19.192 2.693 20.344 2.693 L 20.344 2.693 L 43.322 2.693 C 45.628 2.693 47.5 4.565 47.5 6.871 L 47.5 31.937 C 47.5 34.243 45.628 36.115 43.322 36.115 L 36.262 36.115 L 32.079 44.472 C 31.563 45.503 30.583 45.591 29.891 44.669 L 23.478 36.115 L 20.344 36.115 L 20.344 36.115 C 19.192 36.115 18.256 35.179 18.256 34.026 L 18.256 34.026 C 18.256 32.873 19.192 31.937 20.344 31.937 L 20.344 31.937 L 25.567 31.937 L 30.434 38.423 L 33.672 31.937 L 41.233 31.937 C 42.386 31.937 43.322 31.001 43.322 29.849 L 43.322 8.96 C 43.322 7.807 42.386 6.871 41.233 6.871 L 20.344 6.871 L 20.344 6.871 Z  M 11.989 31.937 L 11.989 31.937 C 13.142 31.937 14.078 32.873 14.078 34.026 L 14.078 34.026 C 14.078 35.179 13.142 36.115 11.989 36.115 L 11.989 36.115 L 4.678 36.115 C 2.372 36.115 0.5 34.243 0.5 31.937 L 0.5 6.871 C 0.5 4.565 2.372 2.693 4.678 2.693 L 11.989 2.693 L 11.989 2.693 C 13.142 2.693 14.078 3.629 14.078 4.782 L 14.078 4.782 C 14.078 5.935 13.142 6.871 11.989 6.871 L 11.989 6.871 L 6.767 6.871 C 5.614 6.871 4.678 7.807 4.678 8.96 L 4.678 29.849 C 4.678 31.001 5.614 31.937 6.767 31.937 L 11.989 31.937 Z "
     fill-rule="evenodd"
     fill="url(#_lgradient_5)"
     id="path9" />
</svg>
