<?xml version="1.0" encoding="UTF-8" standalone="no"?>
<!-- Generator: Gravit.io -->

<svg
   xmlns:dc="http://purl.org/dc/elements/1.1/"
   xmlns:cc="http://creativecommons.org/ns#"
   xmlns:rdf="http://www.w3.org/1999/02/22-rdf-syntax-ns#"
   xmlns:svg="http://www.w3.org/2000/svg"
   xmlns="http://www.w3.org/2000/svg"
   xmlns:sodipodi="http://sodipodi.sourceforge.net/DTD/sodipodi-0.dtd"
   xmlns:inkscape="http://www.inkscape.org/namespaces/inkscape"
   style="isolation:isolate"
   viewBox="0 0 48 48"
   width="48pt"
   height="48pt"
   version="1.1"
   id="svg9"
   sodipodi:docname="gimp.svg"
   inkscape:version="0.92.3 (2405546, 2018-03-11)">
  <metadata
     id="metadata15">
    <rdf:RDF>
      <cc:Work
         rdf:about="">
        <dc:format>image/svg+xml</dc:format>
        <dc:type
           rdf:resource="http://purl.org/dc/dcmitype/StillImage" />
      </cc:Work>
    </rdf:RDF>
  </metadata>
  <defs
     id="defs13" />
  <sodipodi:namedview
     pagecolor="#ffffff"
     bordercolor="#666666"
     borderopacity="1"
     objecttolerance="10"
     gridtolerance="10"
     guidetolerance="10"
     inkscape:pageopacity="0"
     inkscape:pageshadow="2"
     inkscape:window-width="1152"
     inkscape:window-height="802"
     id="namedview11"
     showgrid="false"
     inkscape:zoom="3.6875"
     inkscape:cx="-5.8305085"
     inkscape:cy="32"
     inkscape:window-x="-8"
     inkscape:window-y="-8"
     inkscape:window-maximized="1"
     inkscape:current-layer="svg9" />
  <linearGradient
     id="_lgradient_8"
     x1="0"
     y1="0.5"
     x2="1"
     y2="0.5"
     gradientTransform="matrix(47.15,0,0,39.75,0.425,4.125)"
     gradientUnits="userSpaceOnUse">
    <stop
       offset="0%"
       stop-opacity="1"
       style="stop-color:#ff0000;stop-opacity:1"
       id="stop2" />
    <stop
       offset="98.26086956521739%"
       stop-opacity="1"
       style="stop-color:#550000;stop-opacity:1"
       id="stop4" />
  </linearGradient>
  <path
     d="m 10.002,15.556 c -0.466,0.492 -0.858,1.046 -1.164,1.646 v 0 C 8.401,16.983 7.948,16.8 7.485,16.655 c -0.65,-0.2 -1.32,-0.31 -1.99,-0.32 -1.11,-0.02 -2.19,0.33 -3.07,0.98 -0.69,0.53 -1.22,1.23 -1.55,2.04 -0.31,0.78 -0.46,1.62 -0.45,2.47 0.01,1.11 0.22,2.21 0.62,3.24 0.43,1.14 1.03,2.22 1.77,3.19 v 0 c 0.93,1.24 2.1,2.29 3.44,3.09 0.199,0.117 0.401,0.227 0.608,0.327 3.427,2.108 7.111,3.762 10.962,4.923 1.8,0.55 3.64,0.97 5.5,1.27 1.73,0.28 3.47,0.42 5.22,0.43 1.57,0.01 3.14,-0.14 4.68,-0.44 0.796,-0.148 1.58,-0.364 2.343,-0.634 0,0.025 0.117,0.042 0.353,0.049 v 0 c 0.098,0.0033 0.216,0.005 0.354,0.005 0,0 2.677,0.768 4.359,1.29 -0.262,1.157 0.341,2.584 1.897,3.154 2.614,0.957 5.044,2.156 5.044,2.156 v 0 c -1.247,-4.052 -1.689,-7.269 -4.948,-6.982 -0.125,0.011 -0.245,0.03 -0.36,0.055 L 38.59,35.064 v 0 c 1.004,-1.042 1.879,-2.21 2.595,-3.469 1.01,-1.8 1.79,-3.73 2.32,-5.73 0.61,-2.28 1.03,-4.6 1.25,-6.95 0.27,-2.71 0.4,-5.44 0.38,-8.17 0,-1.45 -0.02,-2.9 -0.08,-4.35 -0.42,-0.69 -0.98,-1.27 -1.65,-1.71 -0.54,-0.36 -1.18,-0.55 -1.83,-0.56 -0.65,0.01 -1.28,0.2 -1.83,0.56 -0.49,0.32 -0.92,0.72 -1.29,1.19 -1.51,1.47 -3.07,2.89 -4.68,4.25 -0.81,0.67 -1.65,1.3 -2.51,1.89 -0.83,0.57 -1.69,1.07 -2.59,1.51 l -0.245,0.12 c -0.62,-0.178 -1.267,-0.27 -1.925,-0.27 -1.85,0 -3.64,0.74 -4.95,2.05 -0.289,0.289 -0.55,0.601 -0.765,0.943 v 0 0 c -0.214,-0.342 -0.476,-0.654 -0.765,-0.943 -0.568,-0.569 -1.225,-1.03 -1.939,-1.37 l -4.101,-5.47 c -0.19,-0.26 -0.42,-0.5 -0.68,-0.7 -0.36,-0.3 -0.82,-0.46 -1.28,-0.47 -0.75,0.01 -1.43,0.47 -1.72,1.16 -0.18,0.42 -0.26,0.87 -0.25,1.32 z m 3.019,-1.873 c 0.348,-0.107 0.705,-0.187 1.068,-0.238 l -1.054,-1.12 z m -1.678,5.278 c 0.237,-0.657 0.653,-1.236 1.202,-1.686 0.71,-0.58 1.61,-0.9 2.53,-0.9 1.06,0 2.08,0.42 2.83,1.17 0.75,0.75 1.17,1.77 1.17,2.83 0,0.025 0,0.05 -0.002,0.075 v 0 0 c -0.129,-0.232 -0.291,-0.434 -0.479,-0.601 -0.238,-0.212 -0.512,-0.368 -0.803,-0.472 0.441,1.795 -2.25,2.784 -3.125,1.134 -0.178,0.346 -0.281,0.756 -0.281,1.212 0,0.796 0.314,1.449 0.791,1.873 0.335,0.298 0.74,0.486 1.164,0.571 -0.403,0.138 -0.831,0.208 -1.265,0.208 -0.086,0 -0.172,-0.002 -0.259,-0.007 -0.062,-0.193 -0.128,-0.384 -0.201,-0.573 -0.43,-1.14 -1.02,-2.22 -1.76,-3.18 -0.452,-0.602 -0.956,-1.157 -1.512,-1.654 z m 20.116,-3.532 c 1.308,1.31 2.046,3.088 2.046,4.946 0,1.86 -0.74,3.64 -2.05,4.95 -1.31,1.31 -3.09,2.05 -4.95,2.05 -1.85,0 -3.64,-0.74 -4.95,-2.05 -0.289,-0.289 -0.55,-0.601 -0.765,-0.943 v 0 c -0.214,0.342 -0.476,0.654 -0.765,0.943 -1.271,1.271 -2.985,2.006 -4.786,2.045 -0.025,0.731 -0.175,1.457 -0.454,2.145 -0.32,0.8 -0.85,1.5 -1.54,2.03 -0.033,0.024 -0.067,0.048 -0.102,0.07 v 0 c 1.795,0.838 3.653,1.54 5.552,2.11 1.67,0.51 3.38,0.9 5.11,1.18 1.57,0.25 3.16,0.38 4.75,0.39 1.38,0.01 2.75,-0.12 4.1,-0.38 0.056,-0.011 0.111,-0.022 0.166,-0.035 -2.033,-1.314 -3.852,-2.79 -4.773,-3.566 -0.928,0.912 -2.292,1.519 -4.016,1.559 -2.251,0.052 -5.117,-0.824 -8.457,-1.997 v -0.002 0 c 2.143,0 4.097,0.107 5.869,0 2.943,-0.182 5.531,-0.502 6.839,-1.507 -0.553,-0.712 -0.708,-1.492 -0.708,-1.492 0,0 1.665,0.679 2.529,1.79 0.556,0.714 0.269,0.889 -0.062,1.304 1.33,0.562 3.58,1.579 5.645,2.724 1.146,-1.02 2.121,-2.228 2.878,-3.568 0.89,-1.59 1.58,-3.28 2.04,-5.03 0.57,-2.12 0.96,-4.28 1.17,-6.47 0.26,-2.61 0.38,-5.24 0.36,-7.87 0,-1.1 -0.01,-2.2 -0.04,-3.3 -0.11,-0.1 -0.22,-0.19 -0.34,-0.27 -0.06,-0.03 -0.12,-0.05 -0.18,-0.06 -0.06,0.01 -0.12,0.03 -0.18,0.06 -0.24,0.16 -0.45,0.36 -0.62,0.59 -0.05,0.07 -0.11,0.13 -0.16,0.18 l -0.05,0.05 c -1.56,1.53 -3.19,3.01 -4.86,4.42 -0.89,0.74 -1.8,1.43 -2.75,2.07 -0.484,0.335 -0.981,0.648 -1.496,0.934 z M 30.067,22.2 c 0.285,-0.56 0.438,-1.185 0.438,-1.825 0,-1.06 -0.42,-2.08 -1.17,-2.83 -0.75,-0.75 -1.77,-1.17 -2.83,-1.17 -1.06,0 -2.08,0.42 -2.83,1.17 -0.75,0.75 -1.17,1.77 -1.17,2.83 v 0 0 c 0,1.06 0.42,2.08 1.17,2.83 0.75,0.75 1.77,1.17 2.83,1.17 0.152,0 0.304,-0.009 0.453,-0.024 -0.4,-0.083 -0.777,-0.266 -1.092,-0.546 -0.477,-0.424 -0.791,-1.077 -0.791,-1.873 0,-0.457 0.104,-0.866 0.281,-1.212 0.875,1.65 3.566,0.661 3.125,-1.134 0.291,0.104 0.565,0.26 0.803,0.472 0.478,0.424 0.791,1.078 0.791,1.874 0,0.09 -0.004,0.179 -0.008,0.268 z M 5.205,26.435 c -0.57,-0.73 -1.02,-1.55 -1.35,-2.42 -0.28,-0.72 -0.42,-1.47 -0.43,-2.24 -0.01,-0.44 0.07,-0.89 0.24,-1.31 0.12,-0.29 0.31,-0.55 0.56,-0.75 0.36,-0.25 0.79,-0.39 1.22,-0.38 0.39,0.01 0.77,0.07 1.14,0.18 0.45,0.14 0.89,0.34 1.29,0.58 1.01,0.6 1.89,1.39 2.59,2.33 0.57,0.74 1.02,1.56 1.35,2.43 0.27,0.71 0.42,1.47 0.43,2.23 0.01,0.45 -0.08,0.89 -0.24,1.31 -0.12,0.3 -0.32,0.55 -0.57,0.75 -0.35,0.26 -0.78,0.39 -1.22,0.38 -0.38,0 -0.76,-0.06 -1.13,-0.18 C 8.867,29.277 8.65,29.197 8.434,29.117 8.215,29.009 7.996,28.898 7.785,28.775 c -1,-0.61 -1.88,-1.4 -2.58,-2.34 v 0 L 50.560932,11.384153 Z m 33.25,-20.56 c 0.01,-0.01 0.01,-0.02 0.02,-0.02 0.01,-0.01 0.01,-0.01 0.01,-0.02 l 0.05,-0.04 -0.16,0.18 c 0.03,-0.04 0.05,-0.07 0.08,-0.1 z"
     id="path7"
     inkscape:connector-curvature="0"
     style="fill:url(#_lgradient_8);fill-rule:evenodd"
     sodipodi:nodetypes="ccccccccccccccccccccccccccccccccccccccccccsscccccccccccccccccsssccccccsccscccccssssccsccccccccccccccccccccccccccccccscccccsssscccsscsscccscccccccccccccccccccccccccccccccc" />
</svg>
