<?xml version="1.0" encoding="UTF-8" standalone="no"?>
<!-- Generator: Gravit.io -->

<svg
   xmlns:dc="http://purl.org/dc/elements/1.1/"
   xmlns:cc="http://creativecommons.org/ns#"
   xmlns:rdf="http://www.w3.org/1999/02/22-rdf-syntax-ns#"
   xmlns:svg="http://www.w3.org/2000/svg"
   xmlns="http://www.w3.org/2000/svg"
   xmlns:sodipodi="http://sodipodi.sourceforge.net/DTD/sodipodi-0.dtd"
   xmlns:inkscape="http://www.inkscape.org/namespaces/inkscape"
   style="isolation:isolate"
   viewBox="0 0 48 48"
   width="48"
   height="48"
   version="1.1"
   id="svg23"
   sodipodi:docname="inkscape.svg"
   inkscape:version="0.92.3 (2405546, 2018-03-11)">
  <metadata
     id="metadata29">
    <rdf:RDF>
      <cc:Work
         rdf:about="">
        <dc:format>image/svg+xml</dc:format>
        <dc:type
           rdf:resource="http://purl.org/dc/dcmitype/StillImage" />
      </cc:Work>
    </rdf:RDF>
  </metadata>
  <defs
     id="defs27" />
  <sodipodi:namedview
     pagecolor="#ffffff"
     bordercolor="#666666"
     borderopacity="1"
     objecttolerance="10"
     gridtolerance="10"
     guidetolerance="10"
     inkscape:pageopacity="0"
     inkscape:pageshadow="2"
     inkscape:window-width="1152"
     inkscape:window-height="802"
     id="namedview25"
     showgrid="false"
     inkscape:zoom="4.9166667"
     inkscape:cx="-4.3728814"
     inkscape:cy="2.3389831"
     inkscape:window-x="-8"
     inkscape:window-y="-8"
     inkscape:window-maximized="1"
     inkscape:current-layer="svg23" />
  <linearGradient
     id="_lgradient_8"
     x1="0.075503901"
     y1="0.45400396"
     x2="1.022936493905845"
     y2="0.5042963242965388"
     gradientTransform="matrix(21.681,0,0,15.11,13.273,10.89)"
     gradientUnits="userSpaceOnUse">
    <stop
       offset="0%"
       stop-opacity="1"
       style="stop-color:#d4ff2a;stop-opacity:1"
       id="stop2" />
    <stop
       offset="98.69565217391305%"
       stop-opacity="1"
       style="stop-color:rgb(252,82,82)"
       id="stop4" />
  </linearGradient>
  <path
     d=" M 24.663 15.119 L 28.947 19.171 L 30.777 20.902 C 31.346 21.441 30.41 21.59 30.075 21.637 C 28.93 21.798 28.237 19.927 27.082 19.887 C 25.502 19.834 24.031 22.064 22.835 21.999 C 21.752 21.939 21.849 19.803 20.901 19.895 C 20.172 19.965 20.698 21.52 19.75 21.765 C 19.369 21.845 16.476 21.555 17.481 20.823 C 17.526 20.78 17.573 20.735 17.621 20.689 C 18.106 20.227 18.754 19.646 19.256 19.171 L 23.54 15.119 C 23.695 14.973 23.895 14.889 24.097 14.889 C 24.301 14.887 24.506 14.971 24.663 15.119 Z  M 14.91 17.75 C 15.2 17.48 15.49 17.21 15.78 16.94 C 16.03 16.71 16.27 16.49 16.51 16.26 L 20.78 12.22 C 21.66 11.38 22.82 10.91 24.04 10.89 C 24.05 10.89 24.07 10.89 24.08 10.89 L 24.09 10.89 C 24.11 10.89 24.13 10.89 24.15 10.89 C 25.37 10.9 26.54 11.38 27.42 12.22 L 31.7 16.27 L 33.44 17.92 C 34.34 18.71 34.89 19.83 34.95 21.03 C 35.01 22.42 34.37 23.76 33.25 24.6 C 32.82 24.92 32.34 25.17 31.83 25.33 C 31.41 25.46 30.98 25.56 30.54 25.61 C 30.48 25.62 30.42 25.62 30.36 25.63 L 30.22 25.64 C 30.06 25.65 29.91 25.65 29.76 25.64 C 28.68 25.6 27.64 25.22 26.78 24.57 C 26.76 24.55 26.74 24.54 26.72 24.52 C 26.46 24.72 26.18 24.9 25.91 25.08 C 25.07 25.62 24.12 25.93 23.13 25.99 C 23.01 26 22.89 26 22.78 26 L 22.73 26 C 22.63 25.99 22.53 25.99 22.43 25.98 C 21.92 25.93 21.42 25.79 20.94 25.58 C 20.83 25.62 20.72 25.65 20.61 25.67 C 20.23 25.75 19.85 25.79 19.47 25.78 C 18.76 25.77 18.04 25.69 17.34 25.53 C 16.83 25.42 16.32 25.26 15.85 25.03 C 15.37 24.81 14.93 24.51 14.55 24.14 C 13.67 23.28 13.21 22.09 13.28 20.86 C 13.36 19.64 13.96 18.52 14.91 17.75 Z "
     fill-rule="evenodd"
     fill="url(#_lgradient_8)"
     id="path7"
     style="fill:url(#_lgradient_8)" />
  <linearGradient
     id="_lgradient_9"
     x1="0"
     y1="0.5"
     x2="1"
     y2="0.5"
     gradientTransform="matrix(48,0,0,38.08,0,0.17)"
     gradientUnits="userSpaceOnUse">
    <stop
       offset="0%"
       stop-opacity="1"
       style="stop-color:#ccff00;stop-opacity:1"
       id="stop9" />
    <stop
       offset="98.69565217391305%"
       stop-opacity="1"
       style="stop-color:#ff7f2a;stop-opacity:1"
       id="stop11" />
  </linearGradient>
  <path
     d="m 19.6,33.84 v 0 c 0.9,0.64 1.11,1.888 0.47,2.785 v 0 c -0.64,0.897 -1.89,1.105 -2.79,0.465 v 0 C 15.523025,27.274508 8.9013018,26.647985 2.391,25.811 1.072,24.812 0.955,23.054 2.131,21.889 15.279225,18.069937 19.816454,10.678433 21.929,2.281 23.105,1.116 25.013,1.118 26.186,2.286 L 33.126364,15.075277 45.874,21.884 c 1.173,1.168 1.057,2.931 -0.26,3.935 C 35.744692,24.634692 33.288092,30.863092 30.83,37.09 v 0 c -0.894,0.64 -2.142,0.432 -2.785,-0.465 v 0 C 27.402,35.728 27.61,34.48 28.51,33.84 v 0 L 41.92,23.69 24.06,5.83 6,24 Z"
     id="path14"
     inkscape:connector-curvature="0"
     style="fill:url(#_lgradient_9)"
     sodipodi:nodetypes="ccccccccccccccccccccccc" />
  <linearGradient
     id="_lgradient_10"
     x1="0"
     y1="0.5"
     x2="1"
     y2="0.5"
     gradientTransform="matrix(21.36,0,0,9.92,13.32,38.32)"
     gradientUnits="userSpaceOnUse">
    <stop
       offset="0%"
       stop-opacity="1"
       style="stop-color:#ccff00;stop-opacity:1"
       id="stop16" />
    <stop
       offset="98.69565217391305%"
       stop-opacity="1"
       style="stop-color:rgb(252,82,82)"
       id="stop18" />
  </linearGradient>
  <path
     d=" M 31.11 39.21 L 31.11 39.21 C 32.092 38.719 33.291 39.12 33.785 40.105 L 33.785 40.105 C 34.279 41.09 33.878 42.293 32.89 42.79 L 32.89 42.79 L 25.705 47.195 C 24.764 47.772 23.236 47.772 22.295 47.195 L 15.11 42.79 L 15.11 42.79 C 14.122 42.293 13.721 41.09 14.215 40.105 L 14.215 40.105 C 14.709 39.12 15.908 38.719 16.89 39.21 L 16.89 39.21 L 22.315 42.682 C 23.245 43.277 24.755 43.277 25.685 42.682 L 31.11 39.21 Z "
     fill="url(#_lgradient_10)"
     id="path21" />
</svg>
