<?xml version="1.0" encoding="UTF-8" standalone="no"?>
<!-- Generator: Gravit.io -->

<svg
   xmlns:dc="http://purl.org/dc/elements/1.1/"
   xmlns:cc="http://creativecommons.org/ns#"
   xmlns:rdf="http://www.w3.org/1999/02/22-rdf-syntax-ns#"
   xmlns:svg="http://www.w3.org/2000/svg"
   xmlns="http://www.w3.org/2000/svg"
   xmlns:sodipodi="http://sodipodi.sourceforge.net/DTD/sodipodi-0.dtd"
   xmlns:inkscape="http://www.inkscape.org/namespaces/inkscape"
   style="isolation:isolate"
   viewBox="0 0 48 48"
   width="48pt"
   height="48pt"
   version="1.1"
   id="svg9"
   sodipodi:docname="mixxx.svg"
   inkscape:version="0.92.3 (2405546, 2018-03-11)">
  <metadata
     id="metadata15">
    <rdf:RDF>
      <cc:Work
         rdf:about="">
        <dc:format>image/svg+xml</dc:format>
        <dc:type
           rdf:resource="http://purl.org/dc/dcmitype/StillImage" />
      </cc:Work>
    </rdf:RDF>
  </metadata>
  <defs
     id="defs13" />
  <sodipodi:namedview
     pagecolor="#ffffff"
     bordercolor="#666666"
     borderopacity="1"
     objecttolerance="10"
     gridtolerance="10"
     guidetolerance="10"
     inkscape:pageopacity="0"
     inkscape:pageshadow="2"
     inkscape:window-width="1152"
     inkscape:window-height="802"
     id="namedview11"
     showgrid="false"
     inkscape:zoom="3.6875"
     inkscape:cx="-5.8305085"
     inkscape:cy="32"
     inkscape:window-x="-8"
     inkscape:window-y="-8"
     inkscape:window-maximized="1"
     inkscape:current-layer="svg9" />
  <linearGradient
     id="_lgradient_16"
     x1="0.061897106109324806"
     y1="0.14716151924516707"
     x2="0.9904248356713994"
     y2="0.9865808764728623"
     gradientTransform="matrix(47,0,0,47,0.5,0.5)"
     gradientUnits="userSpaceOnUse">
    <stop
       offset="0%"
       stop-opacity="1"
       style="stop-color:#ff6600;stop-opacity:1"
       id="stop2" />
    <stop
       offset="98.26086956521739%"
       stop-opacity="1"
       style="stop-color:rgb(245,32,250)"
       id="stop4" />
  </linearGradient>
  <path
     d="M 20.837,38 H 10.025 v 0 C 9.183,38 8.5,38.672 8.5,39.5 v 0 c 0,0.828 0.683,1.5 1.525,1.5 h 10.812 c 0.562,1.182 1.36122,0.983051 2.75622,0.983051 1.395,0 3.00778,0.198949 3.56978,-0.983051 h 10.812 c 0.842,0 1.525,-0.672 1.525,-1.5 v 0 C 39.5,38.672 38.817,38 37.975,38 H 27.163 C 26.601,36.818 25.59839,38.644068 24.20339,38.644068 22.80839,38.644068 21.399,36.818 20.837,38 Z M 23.5,19 c 0,-0.13 0.05,-0.26 0.15,-0.35 0.09,-0.1 0.22,-0.15 0.35,-0.15 0.13,0 0.26,0.05 0.35,0.15 0.1,0.09 0.15,0.22 0.15,0.35 0,0.13 -0.05,0.26 -0.15,0.35 -0.09,0.1 -0.22,0.15 -0.35,0.15 -0.13,0 -0.26,-0.05 -0.35,-0.15 C 23.55,19.26 23.5,19.13 23.5,19 Z m 0.95,-7.49 v 0 c -0.552,-0.033 -0.973,-0.506 -0.94,-1.055 v 0 C 23.543,9.906 24.014,9.487 24.56,9.52 v 0 c 2.42,0.14 4.69,1.2 6.36,2.96 1.66,1.77 2.58,4.1 2.58,6.52 0,0.74 -0.08,1.47 -0.25,2.18 v 0 c -0.127,0.541 -0.667,0.877 -1.205,0.75 v 0 C 31.507,21.803 31.173,21.265 31.3,20.73 v 0 c 0.13,-0.57 0.2,-1.15 0.2,-1.73 0,-1.91 -3.72,-1.08 -5.03,-2.47 -1.31,-1.4 -0.12,-4.9 -2.02,-5.02 z M 3.5,34 v 0 c 0,0.828 -0.672,1.5 -1.5,1.5 v 0 C 1.172,35.5 0.5,34.828 0.5,34 V 34 4.5 c 0,-2.208 1.792,-4 4,-4 h 39 c 2.208,0 4,1.792 4,4 V 24 24 c 0,0.828 -0.672,1.5 -1.5,1.5 v 0 c -0.828,0 -1.5,-0.672 -1.5,-1.5 v 0 L 39.618644,15.872881 C 39.050205,14.92647 43.604,3.5 42.5,3.5 h -37 c -1.104,0 -2.5178153,1.0249701 -2,2 6.0618479,11.414268 4.1677673,20.316137 0,28.5 z m 17,-15 c 0,-0.93 0.37,-1.82 1.03,-2.47 0.65,-0.66 1.54,-1.03 2.47,-1.03 0.93,0 1.82,0.37 2.47,1.03 0.66,0.65 1.03,1.54 1.03,2.47 0,0.93 -0.37,1.82 -1.03,2.47 -0.65,0.66 -1.54,1.03 -2.47,1.03 -0.93,0 -1.82,-0.37 -2.47,-1.03 C 20.87,20.82 20.5,19.93 20.5,19 Z M 13,19 c 0,-2.92 1.16,-5.72 3.22,-7.78 C 18.28,9.16 21.08,8 24,8 c 2.92,0 5.72,1.16 7.78,3.22 2.06,2.06 3.22,4.86 3.22,7.78 0,2.92 -1.16,5.72 -3.22,7.78 -2.06,2.06 -5.470169,-0.441017 -8.390169,-0.441017 C 20.469831,26.338983 18.28,28.84 16.22,26.78 14.16,24.72 13,21.92 13,19 Z m -3,0 C 10,15.29 11.48,11.73 14.1,9.1 16.73,6.48 20.29,5 24,5 c 3.71,0 7.27,1.48 9.9,4.1 2.62,2.63 4.1,6.19 4.1,9.9 0,3.71 -1.48,7.27 -4.1,9.9 C 31.27,31.52 27.71,33 24,33 20.29,33 16.73,31.52 14.1,28.9 11.48,26.27 10,22.71 10,19 Z m 34.5,13 v 0 c 0,-0.828 0.672,-1.5 1.5,-1.5 v 0 c 0.828,0 1.5,0.672 1.5,1.5 v 0 11.5 c 0,2.208 -1.792,4 -4,4 h -39 c -2.208,0 -4,-1.792 -4,-4 V 42 42 c 0,-0.828 0.672,-1.5 1.5,-1.5 v 0 c 0.828,0 1.5,0.672 1.5,1.5 v 0 0.5 c 0,1.104 0.896,2 2,2 h 37 c 1.104,0 2,-0.896 2,-2 z"
     id="path7"
     inkscape:connector-curvature="0"
     style="fill:url(#_lgradient_16);fill-rule:evenodd"
     sodipodi:nodetypes="cccccscscsccscscccscscscccccccccccccsccccccsccccccccccsssscccccssssscccscscscccccscssssssscccccccscscsccccccccc" />
</svg>
