<?xml version="1.0" encoding="UTF-8" standalone="no"?>
<!-- Generator: Gravit.io -->

<svg
   xmlns:dc="http://purl.org/dc/elements/1.1/"
   xmlns:cc="http://creativecommons.org/ns#"
   xmlns:rdf="http://www.w3.org/1999/02/22-rdf-syntax-ns#"
   xmlns:svg="http://www.w3.org/2000/svg"
   xmlns="http://www.w3.org/2000/svg"
   xmlns:sodipodi="http://sodipodi.sourceforge.net/DTD/sodipodi-0.dtd"
   xmlns:inkscape="http://www.inkscape.org/namespaces/inkscape"
   style="isolation:isolate"
   viewBox="0 0 48 48"
   width="48pt"
   height="48pt"
   version="1.1"
   id="svg16"
   sodipodi:docname="terminal.svg"
   inkscape:version="0.92.3 (2405546, 2018-03-11)">
  <metadata
     id="metadata22">
    <rdf:RDF>
      <cc:Work
         rdf:about="">
        <dc:format>image/svg+xml</dc:format>
        <dc:type
           rdf:resource="http://purl.org/dc/dcmitype/StillImage" />
      </cc:Work>
    </rdf:RDF>
  </metadata>
  <defs
     id="defs20" />
  <sodipodi:namedview
     pagecolor="#ffffff"
     bordercolor="#666666"
     borderopacity="1"
     objecttolerance="10"
     gridtolerance="10"
     guidetolerance="10"
     inkscape:pageopacity="0"
     inkscape:pageshadow="2"
     inkscape:window-width="1152"
     inkscape:window-height="802"
     id="namedview18"
     showgrid="false"
     inkscape:zoom="3.6875"
     inkscape:cx="-3.8172172"
     inkscape:cy="32"
     inkscape:window-x="-8"
     inkscape:window-y="-8"
     inkscape:window-maximized="1"
     inkscape:current-layer="svg16" />
  <linearGradient
     id="_lgradient_3"
     x1="0"
     y1="0.5"
     x2="1"
     y2="0.5"
     gradientTransform="matrix(46.5,0,0,41,1,3.5)"
     gradientUnits="userSpaceOnUse">
    <stop
       offset="0%"
       stop-opacity="1"
       style="stop-color:#2ad4ff;stop-opacity:1"
       id="stop2" />
    <stop
       offset="98.26086956521739%"
       stop-opacity="1"
       style="stop-color:#cc00ff;stop-opacity:1"
       id="stop4" />
  </linearGradient>
  <path
     d="m 27.722,32.15 v 0 c -1.141,0 -2.067,-0.896 -2.067,-2 v 0 c 0,-1.104 0.926,-2 2.067,-2 v 0 H 44.45 c 1.684,0 3.05,1.366 3.05,3.05 v 4.3 c 0,2.39 -0.982,4.68 -2.728,6.36 C 43.036,43.55 40.67,44.5 38.2,44.5 H 10.3 C 7.83,44.5 5.464,43.55 3.728,41.86 1.982,40.18 1,37.89 1,35.5 v -23 C 1,10.11 1.982,7.82 3.728,6.14 5.464,4.45 7.83,3.5 10.3,3.5 h 27.9 c 2.47,0 4.836,0.95 6.572,2.64 1.746,1.68 2.728,3.97 2.728,6.36 v 4.34 0 c 0,1.104 -0.926,2 -2.067,2 v 0 c -1.14,0 -2.066,-0.896 -2.066,-2 v 0 -4.34 c 0,-1.33 -0.548,-2.6 -1.509,-3.54 C 40.887,8.03 39.550706,7.2480684 38.2,7.5 28.9,9.2346219 19.6,10.069445 10.3,7.5 8.9756176,7.1340938 7.613,8.03 6.642,8.96 5.681,9.9 5.133,11.17 5.133,12.5 v 23 c 0,1.33 0.548,2.6 1.509,3.54 0.971,0.93 2.284,1.46 3.658,1.46 h 27.9 c 1.374,0 2.687,-0.53 3.658,-1.46 0.961,-0.94 1.509,-2.21 1.509,-3.54 v -3.35 z"
     id="path7"
     inkscape:connector-curvature="0"
     style="fill:url(#_lgradient_3)"
     sodipodi:nodetypes="ccccccssscsscsscsscsccccccscsscsscsscscc" />
  <linearGradient
     id="_lgradient_4"
     x1="0"
     y1="0.5"
     x2="1.0289317"
     y2="0.45510158"
     gradientTransform="matrix(14.06,0,0,18.12,10.19,13.69)"
     gradientUnits="userSpaceOnUse">
    <stop
       offset="0%"
       stop-opacity="1"
       style="stop-color:rgb(0,255,255)"
       id="stop9" />
    <stop
       offset="98.26086956521739%"
       stop-opacity="1"
       style="stop-color:rgb(165,83,168)"
       id="stop11" />
  </linearGradient>
  <path
     d="m 11.77,18.08 v 0 c -0.872,-0.684 -1.027,-1.946 -0.345,-2.815 v 0 c 0.682,-0.869 1.938,-1.024 2.805,-0.345 v 0 l 7.656,5.983 c 1.305,1.019 1.305,2.675 0,3.694 L 14.23,30.58 v 0 c -0.867,0.679 -2.123,0.524 -2.805,-0.345 v 0 C 10.743,29.366 10.898,28.104 11.77,27.42 v 0 c 4.305116,-0.191137 16.94763,4.39819 5.98,-4.67 8.721244,-9.5926 -0.265129,-5.904487 -5.98,-4.67 z"
     id="path14"
     style="fill:url(#_lgradient_4)"
     inkscape:connector-curvature="0"
     sodipodi:nodetypes="cccccccccccccccc" />
</svg>
