<?xml version="1.0" encoding="UTF-8" standalone="no"?>
<!-- Generator: Gravit.io -->

<svg
   xmlns:dc="http://purl.org/dc/elements/1.1/"
   xmlns:cc="http://creativecommons.org/ns#"
   xmlns:rdf="http://www.w3.org/1999/02/22-rdf-syntax-ns#"
   xmlns:svg="http://www.w3.org/2000/svg"
   xmlns="http://www.w3.org/2000/svg"
   xmlns:sodipodi="http://sodipodi.sourceforge.net/DTD/sodipodi-0.dtd"
   xmlns:inkscape="http://www.inkscape.org/namespaces/inkscape"
   style="isolation:isolate"
   viewBox="0 0 48 48"
   width="48pt"
   height="48pt"
   version="1.1"
   id="svg27"
   sodipodi:docname="vlc.svg"
   inkscape:version="0.92.3 (2405546, 2018-03-11)">
  <metadata
     id="metadata31">
    <rdf:RDF>
      <cc:Work
         rdf:about="">
        <dc:format>image/svg+xml</dc:format>
        <dc:type
           rdf:resource="http://purl.org/dc/dcmitype/StillImage" />
      </cc:Work>
    </rdf:RDF>
  </metadata>
  <sodipodi:namedview
     pagecolor="#ffffff"
     bordercolor="#666666"
     borderopacity="1"
     objecttolerance="10"
     gridtolerance="10"
     guidetolerance="10"
     inkscape:pageopacity="0"
     inkscape:pageshadow="2"
     inkscape:window-width="1152"
     inkscape:window-height="802"
     id="namedview29"
     showgrid="false"
     inkscape:zoom="3.6875"
     inkscape:cx="-5.8305085"
     inkscape:cy="32"
     inkscape:window-x="-8"
     inkscape:window-y="-8"
     inkscape:window-maximized="1"
     inkscape:current-layer="svg27" />
  <defs
     id="defs7">
    <linearGradient
       id="_lgradient_15"
       x1="2.8121409"
       y1="77.518661"
       x2="13.135732"
       y2="81.897586"
       gradientTransform="scale(2.2860923,0.43742766)"
       gradientUnits="userSpaceOnUse">
      <stop
         offset="0%"
         style="stop-color:#ffcc00;stop-opacity:1"
         id="stop2" />
      <stop
         offset="84.34782608695653%"
         style="stop-color:#FF4B2B"
         id="stop4" />
    </linearGradient>
  </defs>
  <path
     d="m 12.939,32.15 c 5.899478,2.045012 11.464194,1.746688 16.822,0 1.175129,-0.383102 2.239,0.896 2.239,2 v 0 c 0,1.104 -1.003,2 -2.239,2 H 12.939 c -1.236,0 -2.239,-0.896 -2.239,-2 v 0 c 0,-1.104 1.071174,-2.404819 2.239,-2 z"
     style="fill:url(#_lgradient_15);stroke:none;stroke-miterlimit:10"
     id="path9"
     inkscape:connector-curvature="0"
     sodipodi:nodetypes="ssccssccs" />
  <defs
     id="defs16">
    <linearGradient
       id="_lgradient_16"
       x1="6.9125385"
       y1="44.414116"
       x2="14.109131"
       y2="48.971455"
       gradientTransform="scale(1.890767,0.52888589)"
       gradientUnits="userSpaceOnUse">
      <stop
         offset="0%"
         style="stop-color:#ffd42a;stop-opacity:1"
         id="stop11" />
      <stop
         offset="84.34782608695653%"
         style="stop-color:#FF4B2B"
         id="stop13" />
    </linearGradient>
  </defs>
  <path
     d="M 15.93 22.22 L 25.77 22.22 C 27.001 22.22 28 23.116 28 24.22 L 28 24.22 C 28 25.324 27.001 26.22 25.77 26.22 L 15.93 26.22 C 14.699 26.22 13.7 25.324 13.7 24.22 L 13.7 24.22 C 13.7 23.116 14.699 22.22 15.93 22.22 Z"
     style="stroke:none;fill:url(#_lgradient_16);stroke-miterlimit:10"
     id="path18" />
  <linearGradient
     id="_lgradient_17"
     x1="0"
     y1="0.5"
     x2="0.9074880558539661"
     y2="0.9200778838291643"
     gradientTransform="matrix(46,0,0,47,1,0.5)"
     gradientUnits="userSpaceOnUse">
    <stop
       offset="0%"
       stop-opacity="1"
       style="stop-color:#ffd42a;stop-opacity:1"
       id="stop20" />
    <stop
       offset="84.34782608695653%"
       stop-opacity="1"
       style="stop-color:rgb(255,75,43)"
       id="stop22" />
  </linearGradient>
  <path
     d="m 16.93,24.51 -0.256,0.973 c -0.14,0.534 -0.687,0.852 -1.22,0.71 l -0.005,-0.001 c -1.6,-0.426 -2.666,-1.637 -2.379,-2.702 v 0 C 15.69877,18.56168 17.472486,12.137017 17.934,3.416 18.323,1.806 19.984,0.5 21.64,0.5 h 4.73 c 1.656,0 3.337,1.301 3.752,2.904 -8.482,-2.904 12.429218,22.118284 8.537,32.988 0.139,0.534 0.699,0.968 1.251,0.968 H 44 c 1.656,0 3,1.344 3,3 v 4.14 c 0,1.656 -1.386114,2.628908 -3,3 -11.606487,2.668762 -40.7341738,-6.578906 -40,0 0.1836615,1.645784 -3,-1.344 -3,-3 v -4.14 c 0,-1.656 1.344,-3 3,-3 h 4.08 c 0.552,0 1.111,-0.434 1.247,-0.969 L 10.06,33.51 v 0 c 0.276,-1.071 1.802,-1.607 3.406,-1.196 l 0.964,0.246 -0.49,1.93 -1.503,5.901 C 12.301,40.926 11.742,41.36 11.19,41.36 H 6 c -0.552,0 -1,0.448 -1,1 v 0.14 c 0,0.552 0.448,1 1,1 h 36 c 0.552,0 1,-0.448 1,-1 v -0.14 c 0,-0.552 -0.448,-1 -1,-1 h -5.18 c -0.552,0 -1.112,-0.434 -1.251,-0.968 L 26.521,5.468 C 26.382,4.934 25.822,4.5 25.27,4.5 h -2.55 c -0.552,0 -1.104,0.436 -1.233,0.973 z"
     id="path25"
     inkscape:connector-curvature="0"
     style="fill:url(#_lgradient_17)"
     sodipodi:nodetypes="cccccccssccsssssssssscccccccssssssssssccsscc" />
</svg>
